<svg width="1100" height="272" viewBox="0 0 1100 272" fill="none" xmlns="http://www.w3.org/2000/svg">
<rect width="1100" height="271.97" rx="16" fill="white"/>
<rect x="24" y="56" width="232" height="12" rx="4" fill="black"/>
<rect x="24" y="92" width="1052" height="123.97" rx="11.9392" fill="#F3F3F3"/>
<rect x="49.4924" y="117.492" width="321.015" height="72.9848" rx="6.5076" fill="white"/>
<rect x="49.4924" y="117.492" width="321.015" height="72.9848" rx="6.5076" stroke="#D2D2D2" stroke-width="2.98479"/>
<rect x="74.9844" y="142.985" width="119" height="9" rx="4" fill="black"/>
<rect x="74.9844" y="155.985" width="100" height="9" rx="4" fill="black" fill-opacity="0.5"/>
<rect x="333.016" y="149.485" width="12" height="9" rx="4" fill="black"/>
<rect x="389.492" y="117.492" width="321.015" height="72.9848" rx="6.5076" fill="white"/>
<rect x="389.492" y="117.492" width="321.015" height="72.9848" rx="6.5076" stroke="#D2D2D2" stroke-width="2.98479"/>
<rect x="414.984" y="142.985" width="119" height="9" rx="4" fill="black"/>
<rect x="414.984" y="155.985" width="100" height="9" rx="4" fill="black" fill-opacity="0.5"/>
<rect x="673.016" y="149.485" width="12" height="9" rx="4" fill="black"/>
<rect x="729.492" y="117.492" width="321.015" height="72.9848" rx="6.5076" fill="white"/>
<rect x="729.492" y="117.492" width="321.015" height="72.9848" rx="6.5076" stroke="#D2D2D2" stroke-width="2.98479"/>
<rect x="754.984" y="142.985" width="119" height="9" rx="4" fill="black"/>
<rect x="754.984" y="155.985" width="100" height="9" rx="4" fill="black" fill-opacity="0.5"/>
<rect x="1013.02" y="149.485" width="12" height="9" rx="4" fill="black"/>
</svg>
