<svg width="1100" height="304" viewBox="0 0 1100 304" fill="none" xmlns="http://www.w3.org/2000/svg">
<rect width="1100" height="303.97" rx="16" fill="white"/>
<rect x="24" y="69" width="232" height="12" rx="4" fill="black"/>
<rect x="977" y="56" width="99" height="38" rx="8" fill="#232323"/>
<rect x="991" y="72" width="49" height="6" rx="3" fill="white"/>
<rect x="1052" y="72" width="10" height="6" rx="3" fill="white"/>
<rect x="24" y="118" width="1052" height="129.97" rx="11.9392" fill="#F3F3F3"/>
<rect x="49.4924" y="143.492" width="243.015" height="78.9848" rx="6.5076" fill="white"/>
<rect x="49.4924" y="143.492" width="243.015" height="78.9848" rx="6.5076" stroke="#D2D2D2" stroke-width="2.98479"/>
<rect x="74.9844" y="168.985" width="12" height="9" rx="4" fill="black"/>
<rect x="74.9844" y="187.985" width="119" height="9" rx="4" fill="black"/>
<rect x="251.447" y="178.485" width="12" height="9" rx="4" fill="black"/>
<rect x="311.492" y="143.492" width="243.015" height="78.9848" rx="6.5076" fill="white"/>
<rect x="311.492" y="143.492" width="243.015" height="78.9848" rx="6.5076" stroke="#D2D2D2" stroke-width="2.98479"/>
<rect x="336.984" y="168.985" width="12" height="9" rx="4" fill="black"/>
<rect x="336.984" y="187.985" width="119" height="9" rx="4" fill="black"/>
<rect x="513.447" y="178.485" width="12" height="9" rx="4" fill="black"/>
<rect x="573.492" y="143.492" width="243.015" height="78.9848" rx="6.5076" fill="white"/>
<rect x="573.492" y="143.492" width="243.015" height="78.9848" rx="6.5076" stroke="#D2D2D2" stroke-width="2.98479"/>
<rect x="598.984" y="168.985" width="12" height="9" rx="4" fill="black"/>
<rect x="598.984" y="187.985" width="119" height="9" rx="4" fill="black"/>
<rect x="775.447" y="178.485" width="12" height="9" rx="4" fill="black"/>
<rect x="835.492" y="143.492" width="243.015" height="78.9848" rx="6.5076" fill="white"/>
<rect x="835.492" y="143.492" width="243.015" height="78.9848" rx="6.5076" stroke="#D2D2D2" stroke-width="2.98479"/>
<rect x="860.984" y="168.985" width="12" height="9" rx="4" fill="black"/>
<rect x="860.984" y="187.985" width="119" height="9" rx="4" fill="black"/>
<rect x="1037.45" y="178.485" width="12" height="9" rx="4" fill="black"/>
</svg>
